<mxfile host="app.diagrams.net" modified="2024-03-27T17:54:32.981Z" agent="Mozilla/5.0 (Windows NT 10.0; Win64; x64) AppleWebKit/537.36 (KHTML, like Gecko) Chrome/122.0.0.0 Safari/537.36" etag="acudpNR9hpc3a_KKgXcn" version="24.2.0" type="github">
  <diagram name="Page-1" id="qCOot1EobCRZ6toeI32k">
    <mxGraphModel dx="1222" dy="570" grid="0" gridSize="10" guides="1" tooltips="1" connect="1" arrows="1" fold="1" page="1" pageScale="1" pageWidth="1169" pageHeight="1654" math="0" shadow="0">
      <root>
        <mxCell id="0" />
        <mxCell id="1" parent="0" />
        <mxCell id="vSlwN4f-bdKuWVTqhWNy-68" value="" style="rounded=1;whiteSpace=wrap;html=1;fillColor=#eeeeee;strokeColor=#36393d;" vertex="1" parent="1">
          <mxGeometry x="25" y="80" width="1077" height="383" as="geometry" />
        </mxCell>
        <mxCell id="vSlwN4f-bdKuWVTqhWNy-28" value="" style="group" vertex="1" connectable="0" parent="1">
          <mxGeometry x="342" y="313" width="402" height="118" as="geometry" />
        </mxCell>
        <mxCell id="vSlwN4f-bdKuWVTqhWNy-5" value="" style="rounded=1;whiteSpace=wrap;html=1;fillColor=none;fontColor=#000000;strokeColor=#f0a30a;align=left;strokeWidth=2;gradientColor=none;shadow=1;" vertex="1" parent="vSlwN4f-bdKuWVTqhWNy-28">
          <mxGeometry width="402" height="118" as="geometry" />
        </mxCell>
        <mxCell id="vSlwN4f-bdKuWVTqhWNy-8" value="&lt;b&gt;&lt;font style=&quot;font-size: 13px;&quot;&gt;IaaS&lt;/font&gt;&lt;/b&gt;" style="text;html=1;align=center;verticalAlign=middle;whiteSpace=wrap;rounded=0;" vertex="1" parent="vSlwN4f-bdKuWVTqhWNy-28">
          <mxGeometry x="5" y="6" width="60" height="30" as="geometry" />
        </mxCell>
        <mxCell id="vSlwN4f-bdKuWVTqhWNy-12" value="" style="group" vertex="1" connectable="0" parent="vSlwN4f-bdKuWVTqhWNy-28">
          <mxGeometry x="67" y="22" width="131" height="86" as="geometry" />
        </mxCell>
        <mxCell id="vSlwN4f-bdKuWVTqhWNy-9" value="&lt;b&gt;Mi Bridge Stopgap&lt;/b&gt;" style="rounded=1;whiteSpace=wrap;html=1;fillColor=#fff2cc;strokeColor=#d6b656;" vertex="1" parent="vSlwN4f-bdKuWVTqhWNy-12">
          <mxGeometry width="131" height="86" as="geometry" />
        </mxCell>
        <mxCell id="vSlwN4f-bdKuWVTqhWNy-10" value="" style="shape=image;verticalLabelPosition=bottom;verticalAlign=top;imageAspect=0;aspect=fixed;image=data:image/jpeg,iVBORw0KGgoAAAANSUhEUgAAASwAAAEsCAYAAAB5fY51AAAAGXRFWHRTb2Z0d2FyZQBBZG9iZSBJbWFnZVJlYWR5ccllPAAAFqtJREFUeNrsnfFRG8kShweV/z8yODmCwxFYBPDKOIKDAK6ACIAIgHoBICIw1AWAHIF1EXgvA14EfjvQsrEMaLWanp3p/r4qFXdVnHzunflNd89vZ7a+ffsWAABqYEQIAADBAgBAsAAAwQIAQLAAABAsAECwAAAQLAAABAsAECwAAAQLAADBAgAECwAAwQIAQLAAAMECAECwAAAQLABAsAAAECwAAAQLAOrnzapf2NraIkob8tff7yftj532s91+/pCfUD/37ecf+Tn/738+zwjJZqy6xWtr5S8gWH0Eatz+2Gs/H9rPhIi4IorWbfu5aQWsIRwIVqkitS0idSjZFMC8/VyKeN0TDgSrFKE6EqGi1IOXSscoXBcIF4I1pFidIlSwrnC1onVKKBCsnEI1aX9ctZ8x0YAeNO3ngCY9gpWj/DuREhBgUy7azxllIoKlIVY7klXRUIeUzCXbmhOK1YKFcbSbWMXdvzvEChSIY+pOxhisAMFaLVb77Y9PgcY66BHH1icZa4BgbSRWV0QCMnGFaCFYiBUgWkag6f68WE3CY88KYCjeeWzEs0u4vljFfsLXQM8KhiVaHd56szywS7g+NNihBOIYpCWBYL2aXcWt5QmRgELYw+6AYL3GOSEAxiSCVUN2dRp4NxDKYyxjEwJN94VYRaH6EuhdQZnExvs7DwcC0nTvxgliBQWzeOmeDMt7hoXnCipi1/qRNGRY3bIrAMZqBbgWLHkFYsI8gEqYeH9tx21JKI722GgfMw+gIprw2IA36YCnJHyZI8QKKmQcHJ946zLDwsYAlWPW5kCG9TzYGKBm3Noc3GVY2BjAEOZsDmRYz2dXAIzlCnElWNgYwBjubA5uSkJsDGCUJhiyOVAS/gAbA1hkHBzZHFxkWNgYwDhmbA5kWI9gYwDLuLE5mM+wsDGAI6q3OZBhYWMAP5gf66YFCxsDOMO8zcFsSYiNAZzShIptDp5LQmwM4JFxMGxzMJlhYWMA51Rrc/CaYWFjAM+YtTmYy7CwMQB8pzqbg8cMCxsDgNG5YCrDki3dK8Zpdm7az237mT3tm7TPY6f9ET9/BuwlQ3HQPpOplQzLjGBhYxiEmUyIpmOpfoJwZSc+m2psDp5KQmwMeTluJ8Fu152o2EuJv9/+4xmhy8o4GLI5mMiwsDHUVWZQumenGpuDlwwLG0PezGq6yRfIf39BKLNhxuZQfYaFjSEri7Iu1bP7ShmfleJtDh4yLGwM+Tgr/PvA+FypOsOiF5KVebs6v1N4hmRZeSna5mA2wxIbA9lVPq6VvveG0ObNsmTuVEnNJSE2hswZltL3fia0WRmHim0OVQqW2BgOGXsmBOue0GbnUOYQgpUrrQ3YGLJi5d47eKDadkp1giU2hn3GHMBG7MtcQrAyZFcA4HAuVSVYXCoBkJTqLq2oRrCwMTzQhMcTEmbyz7AeceMg2iiiYXUqcXSfZdVkc3hTUWC92hgamWA3y41v2enZC487pmPm3rPEmF1GgXru5V+ZrHuyGHqM4Vjm1mkN/7NVON0dn8YQXzS+6BijU80MtP3/2FJ6trHE13oXNGZQB11PKdCOYeGiXsRpDlac7t5sDI0MoM4nGrS/Gyfbu4CvacF0nfO6nsRw12EMq2m3FC9YDm0MMxGrtY2a8t98RKseTpU46JlJxvi/DXpG2VKpwuZQQ4blKUVfZAW9V3iZcJ5PQYixO9jkCyT+MdOaOotd8XOtaMFyZmM46JsVPMOF49LwMkUvJoqWPA9PBw0Wb3MoVrCc2RiSHvkhGYK37OB7lpryy9pYHm+asdWWZZVscyg5w/JgY3goPZTOJ7p1KFZzjZ0ueT5eRGscCj7NoUjBcnIaw0KsZhpfXtuNv4lotL7YmWgVe5pDqRmWdRvDQqy87URp84/mlzsSrWLbMcUJlhMbA2Klw2/af4Aj0SrS5lBihmW90X6AWKmxk+MPcSRaxc3FogTLgY0h2wUANZ51VItgPREt63634mwOxQiWAxvDRebbSj44FKztdhztZRSt02DfPlKUzaGkDMuyjeFG/Dw5xX8/+CTr7rKYSy2X+ONQkM2hCMEybmOIgzl3v8PzmfeTnFmWYP2F6WJsDqVkWFYn2MN7bTkvcJCew1HwzVUbh5z9rMW7h2ZL7VBIu2ZwwTJuY8i6I8hN2D9NsLvMohWf87HhmBZhcyghw7LaaI9N9my3Gsvhc4jVz6L1pY1LtmxTzi+zfJP14HN1UMEybGNoQqYt79hgbz93gfPuX+K8jU9OIT8IdvtZg9scBhMs4zaGjzn6VlLy3AVuEupSznzJsT0vz92yqXRQm8OQGZZVG8NZjr7VE7HaCdCFh3jl6GtJK8BqaTgOA27qDCJYhm0MjZgJc4mVV+tC8aJlvDQczOYwVIZl1cagXgogVhuTZQdRSsNjwzEcpJ2TXbAM2xhutM+gQqyqE61psHtZ6yA2hyEyLIuNdvXVFLFSEa1PGRrIlr1Z2edyVsEybGO41LyEErFSYyyZllpcZQNmajR+2W0O2QTLsI0hZlcXynG7QqzU2An6htuzYLcBn9XmkDPDsmxj0ByMVwHrgjZ77aQ7V8yyYvZ9aThLzWZzyCJYxm0MmtnVaZxM6EmeBVX5lAfLd0VmsznkyrCs2hjUXr+RHRhet8nLldbEkyzcapaVrd2jLliGbQxxAN4oxWzRt4L8E08z7pZvkc5ic8iRYVnNEi4Ve1dXwf4lsqUy0TrhwcGN3OpzXVWwjF8qcaEUsxgv+lYDTzzFnozliyvUbQ5qgmX8NIapRnZFKVhUaaiyayg7hjPjYq/Wr9bMsCxfKnFJzMyzp9iTuTYct3FQtDmoCJb1SyU0jo8xHrNaUcl25R1DLq0oKMOyfGvLNTFzw1ixJzM1XlKrtIOSC5bxSyVUBpqsRvvoQ5Fo9WGvjcdNxeYwqugBl8CNkpUBg6izLEvaCg1iP6BgGbcxRG7JrsiyUi6AxuOW3OYwSjjxLNsYNAcYYlVHlqXhjbt2ELukNoeUGZb1Lfm5UjnIzmAdJH9OTsrCcUhoc0giWE625JOvhpIuszNYT3mjsSDPPIh9qtilyrA8bMlrDKwP6EBVaJTvtw7ilqxdtLFgObAxRO5Tm0Wlruedwbr4kwyrv9insDmkyLDOHQRbY1AhVvUxTn3TjvRF507it7FWbCRY0oPxcHzvZ8pBIMvamJ1NbQ69BUtKmnMngaYcBM3M+LOj+J1vYnPYJMOKW5UudrgULkidMO+rLgvHJS+IhbMdNrA59BIseWBeXifRGEzvmfdVk3TBkTOy7h3Fr/cBiX0zrHNHwZ2XPuAhO+8rGWdFl4ZZBMvhEb7/Knwn9wySYXkXrF4HJPbJsM6dBTZ1w53sqn7GCscA/89hHNfWktGak23fYXaQurdAdmWD1M9x5jGG69oc1s2w3J3bpLBD+DtzHcHKsDDWwlqa0lmwRAnHjFMyLEi/8GjcE1BRed05y1onw/J4DIpGms7pDCw80FNbOgmWvD/FA2Kggy5es6ydru9ods2weI0E4GcmCt957zienTSmq2B5fVE36Tteqd/0BzBEJ40ZdZhk25QxyaB/BfByWbhyfnTJsBArgDwZ89x5SFfGs4tgTRiaAFky5v85j+dKrekiWBgdASAHK7Wmi2CNiSMAZGCl1oyIEXSBHU4oAXpY0BUtwap5fKX2Tf3mfIytHAtkWNAVrVNS/6g1IArv/5HFIlimV+Sc7KU+A0qOyeUtCkCwSswqKn8jf6PLA17ghCEGCBZocZiq+W7gxvCZ0qIACFZR1J5lXW1aGsp//4mh8Av0sBII1sxxfCYK33lvYFLd9RUtydDuDGQT3l+jGSRrJcPKj4VbfqPofF33Qo329/dErCxkEklvU8Lnli7DajwHSGEgWYnntmRadyJErwpV/D0pA630aeYK8fTOypi+yb2SVDoxKSVeL5snrSDdy99tkUH+JpnUjtHJiAcrPStf/qaH1W1CJsPwZQPbEqsT+RzJv1sUq6Z9jql7kRwykKiH5b25+PsQDwbqnlhkWDpZ60rBkpXEs2hpDKTPjM2q+VzJOKtKrLpkrV13CW8RLDIs0Hl+8oqS96Z7J43pKlg3niO57vZ9h6w1Dvh75n2VxP5VQ3aVnE4aM+o4weaUhWRZoLZ4v3ce03nXzah1jKOXjgOqMaBumftVcq3wnRPnMe2sLZ0Fq1XAafBrItUYUDeUhVWWg0krDa7Re4jpNLlgCWdOg7qd2vEuOyI3aID7ctB7drWWpozWnGRRCb32sjQG1jUaYLN0WQPP/av5OtlVnwwrcuw0uB9Sf6HsFjboQBXMFHYHI55PXF1bS0Y9J5nHUmaS+ohg52W2++xK2gxjr+W1aImuYD1RRo8NY43VkOZ7+cTGMP2rdNz3rdR6CZakxh5tDhpl4X3wbRmpAa0s+E+v2Wrf8nqTA/wugr/+y55SWXhBllV0djVVKgc92hkaGe+96C1Ykhl47L8kLwvJssiuPMVzk6N5RhtOtLjyzJwF/FDpe8myymOukV1pLXwVMNs0ninOdPeWZe1onL8tq84xGlEUKs9DjpQek60OIFiyNTl1FniVLMtpxloqvbbdB87SS2aaIp6pbs05c1bOaDXf1VZ1WIs4lg+UsquYWU0cxjNJJZZEsBzaHDSubV/Ech4wkw5euiic2b7gxGE8L1O9JZDyXkJvNge1tL59uKeBs/SHLAUvNL5YsvJ9Z/FswgY2BjXBcmhziCc4aA6+g8CuoZlSUDhyGNOk2WrSm58dNo3V0nspDeln5eWjViko2ZW3ZvsstS1E46p6T1nWWDPLkoc9DZCDY8VdwUV25e2iieRasPXt27fXf2Frq89qcuWoVo8r8lvFJm2M55fARQWaxC33A8XnN25/fHEmWL1iukqPRkr/s55sDmo7hk/YDTThtchRep84Eyu1fraKYDm0ORzKKqpVGsYB8DHQhNcQq13l7Hgn+NsZvFQ67FAtw4p4sjnE1fNc8w+QAbCLaNUjVsK5s7g2IaGNIZtgObQ57KW+cPWZmM4RrXrESjZkJs5iq2m61Wm6Lz20O0cPLa4u7zJMhFhm3AWuNy9ZrOKz+ersGUUbw+4mXzBU0/0nxXX0wMYhw6sXTzItGvFlloGRq4CNoZ6S8MnkmgVfXqIj7dIQ0erFTS6xkuNjvJ13NVX2seUpCeUBxszDkw8lS2n4JL6efG99uGifxXGmZ+GxFLyX8d5s+kUllIQebQ5RoLPtDolB7yDAcxPpYy6xEj45LAXVbAyDCNZilQu+TnPYV345elm0Ytn9jhLxO3NZ9bPdodk+79Pgb1ewCYo2hkFKwicPNE7gK2cr/K70m3JNmri6x8a/x5MBFpzJET0hY9yjUN05jPVByhecV+pRTsGSB+vJ5rBYgbL1s5YmUCxLPb2DOAuPLzHPM8c6tgC8vSv4EO9NbQzrCtabIVY/Z4IVB3Psa+zm/ENlx+adlCmHxifTvQjVNPcfLBmtx77VYi5nZZT7D3R6acVEdvLCAPGOgvU2Z58hs1DFSfN2CLESroLPkzSy2BgGLwmdp9DHWsfvrhH32N/aNyBUcdf5InepvRRPr3aSZDaGdUvCQQRLHvZp8Hkg/8GA2cDTMuaowlKxEaGaDilUzsfvQymotalRsmBtS5Y1RrQGnXgxQ/gQynZmR2vCdU6LQoeYXQWfNEFxE6lYweLBlyNaTxaQvYLEK4rTbXi8xea+oDh5HrPq47ZowZIB4M3mUKxoLYlXfCbv5WeOpvIsPJo9P5eSSSFWvz6j1DaGGgUrTog7x4OgSNF64TlF4fpdfm73FLIoSjFj+izlRTPEbhNi1Ytd7WdVvGDJYPD+8m4VovXK81sI2It9j1zvmjE+1VC9qKM2wRoHnzaHp1xkfkkXEKuuqNkYqhQsGRinwe828fdVLDx6tTgCeXih2pZWBderZXw3s4jjZbpmGMHXaQ7PEVfyO80beKBzictdkFLOh4LekihGsBxeWvESD5Mlx6ml8KxY7UtmxaLxI7sqJuMvpiR8MmA82xwGS8URqveLq9r2icZ31G0MNZeE3ycp4+Q7J/GaekrELCXgHWJV/lwsTrCcnubQpUQ8IhQqYhUzWPpVvzIt0R9XXEkog2gcsDk8m6KHR89WQyiSZFVej4ZZRTYbg4WS0OOlFV2ZSLZ1Sih6C9V2+zknq3qVy1IXxVHBQcPm8DwPZ7a3k+6r3H8H3cVqPzxewUV5/TJNKPiwxyJLwqUBdsUYWlkmntXwPt6A4yhmpt7Ot+/LoK+JVeN0f2WwYXNAuDYRqhPGT/cxlNvGsK5gvakgiGcMuE7EGMWz490Ll5TKh4ybXnOtaIrPsGQA8gLq+sRjXC5rPgVizTGyLWMkCtWYx782WU5jMF8SymCMAxCbQz/iFnUUrevc9/VlGhs7IlJ7jI+Nxsi7EnYGTQiWDMzTwGkOKbKu6/B47HBT619CROpPESmyqQSlYCmvgFkSLM+XVmiJ1+LM9OIzL2mgf0CkktOEAW4mNy9YMmhjjwKbg05JMAuPxxbPShCwJ0cyL86Vp9zToajTbk0JlgxkbA55mEkW9q/8nGuswtKfHIs4/SH/zPPN9IyHtjGsK1hvKgwyNoc8TJbj3IrLopS8l1Li36US8zlBW76s4ncRpb6XWEDauVQV1WVYMnGwOQBsRhE2hnUzrFGlwT57YTUHgNVUe7pvlYLFaQ4AG3FZq61lVHHQOc0BYH2aUPBpDGYFi0srAHpxVvM1clU23Z+CzQGgM8XZGJax2nT/acVgHAL4mCvVCxaXVgB0YmrhyKGRkYeBzQHgZcz0e00IFjYHgFe5tHLT0sjQQ8HmAPArTajYxmBWsLA5ADxL1TaGZaq3NSyDzQHgO8XbGJbxYGv4ZUVhnALYnAvmBAubA8ADU4s3J42MPixsDuAZs/1ck4KFzQGcY8bG4CXDimBzAI80wZCNwY1gYXMAp5iyMSxjztawDDYHcER1NoZlPNoafllxGMfgJbuy/hc0L1jYHMAJJm0MHjOsxcqDzQGs4qZf60KwsDmAcczaGLxmWBFsDmCRJhi2MbgVLGwOYBTTNoZlzNsalsHmAIao3sawDLaGZ1YkxjkwlikJaykNZwGbA9SPCxsDGdaPlQmbA9SK236sS8HC5gCV48bGgGD9AJsD1EgTHNkYEKwfWRY2B6gRVzaGZdzZGpbB5gAVYc7GsAy2hg4rFiEAxiolYS2l4Sxgc4DycWljQLBeXrmwOUCp0G9FsH7KspqAzQHKxa2NAcF6GWwOUCJNcGxjQLBezrJi2n1MJKAwjj3bGJZxb2tYBpsDFMRNK1YfPf2FsTWsTxwgrGgwNHEMHhAGBKtLafiRSMDA7FIKIlhdRWvG6gYDctCOwTlhQLDWEa0pogUDidWUMCBYiBYgVgiWC9GiEQ+aPPRNESsEK5Vo3bQ/4lvy9BUgNXFM7coYAwQrmWjNRbRwHUMqLkSsWAg7gnG0B3/9/X7S/rhqP2OiAT1owmO/akYofmalHiFYGwnXafvjsP1sEw3oQOxVxReZTwkFgjWUaEWxOkK4YJVQxRIQMyiCVZJw7Ylw7RARCI8N9ShUNwgVglWyeI1FvD4EXqT2xqz93IpINYQDwapRwCaSdcUs7A9KR1Ol3j/yc04TvQDBAgAoBXxYAIBgAQAgWACAYAEAIFgAAAgWACBYAAAIFgAAggUACBYAAIIFAIBgAQCCBQCAYAEAIFgAgGABACBYAAAIFgAgWAAAA/B/AQYADzNdSIm6e6IAAAAASUVORK5CYII=;imageBackground=none;" vertex="1" parent="vSlwN4f-bdKuWVTqhWNy-12">
          <mxGeometry x="97" y="56" width="28" height="28" as="geometry" />
        </mxCell>
        <mxCell id="vSlwN4f-bdKuWVTqhWNy-13" value="" style="group" vertex="1" connectable="0" parent="vSlwN4f-bdKuWVTqhWNy-28">
          <mxGeometry x="237" y="22" width="131" height="86" as="geometry" />
        </mxCell>
        <mxCell id="vSlwN4f-bdKuWVTqhWNy-14" value="&lt;b&gt;Config Server&lt;/b&gt;" style="rounded=1;whiteSpace=wrap;html=1;fillColor=#fff2cc;strokeColor=#d6b656;" vertex="1" parent="vSlwN4f-bdKuWVTqhWNy-13">
          <mxGeometry width="131" height="86" as="geometry" />
        </mxCell>
        <mxCell id="vSlwN4f-bdKuWVTqhWNy-15" value="" style="shape=image;verticalLabelPosition=bottom;verticalAlign=top;imageAspect=0;aspect=fixed;image=data:image/jpeg,iVBORw0KGgoAAAANSUhEUgAAASwAAAEsCAYAAAB5fY51AAAAGXRFWHRTb2Z0d2FyZQBBZG9iZSBJbWFnZVJlYWR5ccllPAAAFqtJREFUeNrsnfFRG8kShweV/z8yODmCwxFYBPDKOIKDAK6ACIAIgHoBICIw1AWAHIF1EXgvA14EfjvQsrEMaLWanp3p/r4qFXdVnHzunflNd89vZ7a+ffsWAABqYEQIAADBAgBAsAAAwQIAQLAAABAsAECwAAAQLAAABAsAECwAAAQLAADBAgAECwAAwQIAQLAAAMECAECwAAAQLABAsAAAECwAAAQLAOrnzapf2NraIkob8tff7yftj532s91+/pCfUD/37ecf+Tn/738+zwjJZqy6xWtr5S8gWH0Eatz+2Gs/H9rPhIi4IorWbfu5aQWsIRwIVqkitS0idSjZFMC8/VyKeN0TDgSrFKE6EqGi1IOXSscoXBcIF4I1pFidIlSwrnC1onVKKBCsnEI1aX9ctZ8x0YAeNO3ngCY9gpWj/DuREhBgUy7azxllIoKlIVY7klXRUIeUzCXbmhOK1YKFcbSbWMXdvzvEChSIY+pOxhisAMFaLVb77Y9PgcY66BHH1icZa4BgbSRWV0QCMnGFaCFYiBUgWkag6f68WE3CY88KYCjeeWzEs0u4vljFfsLXQM8KhiVaHd56szywS7g+NNihBOIYpCWBYL2aXcWt5QmRgELYw+6AYL3GOSEAxiSCVUN2dRp4NxDKYyxjEwJN94VYRaH6EuhdQZnExvs7DwcC0nTvxgliBQWzeOmeDMt7hoXnCipi1/qRNGRY3bIrAMZqBbgWLHkFYsI8gEqYeH9tx21JKI722GgfMw+gIprw2IA36YCnJHyZI8QKKmQcHJ946zLDwsYAlWPW5kCG9TzYGKBm3Noc3GVY2BjAEOZsDmRYz2dXAIzlCnElWNgYwBjubA5uSkJsDGCUJhiyOVAS/gAbA1hkHBzZHFxkWNgYwDhmbA5kWI9gYwDLuLE5mM+wsDGAI6q3OZBhYWMAP5gf66YFCxsDOMO8zcFsSYiNAZzShIptDp5LQmwM4JFxMGxzMJlhYWMA51Rrc/CaYWFjAM+YtTmYy7CwMQB8pzqbg8cMCxsDgNG5YCrDki3dK8Zpdm7az237mT3tm7TPY6f9ET9/BuwlQ3HQPpOplQzLjGBhYxiEmUyIpmOpfoJwZSc+m2psDp5KQmwMeTluJ8Fu152o2EuJv9/+4xmhy8o4GLI5mMiwsDHUVWZQumenGpuDlwwLG0PezGq6yRfIf39BKLNhxuZQfYaFjSEri7Iu1bP7ShmfleJtDh4yLGwM+Tgr/PvA+FypOsOiF5KVebs6v1N4hmRZeSna5mA2wxIbA9lVPq6VvveG0ObNsmTuVEnNJSE2hswZltL3fia0WRmHim0OVQqW2BgOGXsmBOue0GbnUOYQgpUrrQ3YGLJi5d47eKDadkp1giU2hn3GHMBG7MtcQrAyZFcA4HAuVSVYXCoBkJTqLq2oRrCwMTzQhMcTEmbyz7AeceMg2iiiYXUqcXSfZdVkc3hTUWC92hgamWA3y41v2enZC487pmPm3rPEmF1GgXru5V+ZrHuyGHqM4Vjm1mkN/7NVON0dn8YQXzS+6BijU80MtP3/2FJ6trHE13oXNGZQB11PKdCOYeGiXsRpDlac7t5sDI0MoM4nGrS/Gyfbu4CvacF0nfO6nsRw12EMq2m3FC9YDm0MMxGrtY2a8t98RKseTpU46JlJxvi/DXpG2VKpwuZQQ4blKUVfZAW9V3iZcJ5PQYixO9jkCyT+MdOaOotd8XOtaMFyZmM46JsVPMOF49LwMkUvJoqWPA9PBw0Wb3MoVrCc2RiSHvkhGYK37OB7lpryy9pYHm+asdWWZZVscyg5w/JgY3goPZTOJ7p1KFZzjZ0ueT5eRGscCj7NoUjBcnIaw0KsZhpfXtuNv4lotL7YmWgVe5pDqRmWdRvDQqy87URp84/mlzsSrWLbMcUJlhMbA2Klw2/af4Aj0SrS5lBihmW90X6AWKmxk+MPcSRaxc3FogTLgY0h2wUANZ51VItgPREt63634mwOxQiWAxvDRebbSj44FKztdhztZRSt02DfPlKUzaGkDMuyjeFG/Dw5xX8/+CTr7rKYSy2X+ONQkM2hCMEybmOIgzl3v8PzmfeTnFmWYP2F6WJsDqVkWFYn2MN7bTkvcJCew1HwzVUbh5z9rMW7h2ZL7VBIu2ZwwTJuY8i6I8hN2D9NsLvMohWf87HhmBZhcyghw7LaaI9N9my3Gsvhc4jVz6L1pY1LtmxTzi+zfJP14HN1UMEybGNoQqYt79hgbz93gfPuX+K8jU9OIT8IdvtZg9scBhMs4zaGjzn6VlLy3AVuEupSznzJsT0vz92yqXRQm8OQGZZVG8NZjr7VE7HaCdCFh3jl6GtJK8BqaTgOA27qDCJYhm0MjZgJc4mVV+tC8aJlvDQczOYwVIZl1cagXgogVhuTZQdRSsNjwzEcpJ2TXbAM2xhutM+gQqyqE61psHtZ6yA2hyEyLIuNdvXVFLFSEa1PGRrIlr1Z2edyVsEybGO41LyEErFSYyyZllpcZQNmajR+2W0O2QTLsI0hZlcXynG7QqzU2An6htuzYLcBn9XmkDPDsmxj0ByMVwHrgjZ77aQ7V8yyYvZ9aThLzWZzyCJYxm0MmtnVaZxM6EmeBVX5lAfLd0VmsznkyrCs2hjUXr+RHRhet8nLldbEkyzcapaVrd2jLliGbQxxAN4oxWzRt4L8E08z7pZvkc5ic8iRYVnNEi4Ve1dXwf4lsqUy0TrhwcGN3OpzXVWwjF8qcaEUsxgv+lYDTzzFnozliyvUbQ5qgmX8NIapRnZFKVhUaaiyayg7hjPjYq/Wr9bMsCxfKnFJzMyzp9iTuTYct3FQtDmoCJb1SyU0jo8xHrNaUcl25R1DLq0oKMOyfGvLNTFzw1ixJzM1XlKrtIOSC5bxSyVUBpqsRvvoQ5Fo9WGvjcdNxeYwqugBl8CNkpUBg6izLEvaCg1iP6BgGbcxRG7JrsiyUi6AxuOW3OYwSjjxLNsYNAcYYlVHlqXhjbt2ELukNoeUGZb1Lfm5UjnIzmAdJH9OTsrCcUhoc0giWE625JOvhpIuszNYT3mjsSDPPIh9qtilyrA8bMlrDKwP6EBVaJTvtw7ilqxdtLFgObAxRO5Tm0Wlruedwbr4kwyrv9insDmkyLDOHQRbY1AhVvUxTn3TjvRF507it7FWbCRY0oPxcHzvZ8pBIMvamJ1NbQ69BUtKmnMngaYcBM3M+LOj+J1vYnPYJMOKW5UudrgULkidMO+rLgvHJS+IhbMdNrA59BIseWBeXifRGEzvmfdVk3TBkTOy7h3Fr/cBiX0zrHNHwZ2XPuAhO+8rGWdFl4ZZBMvhEb7/Knwn9wySYXkXrF4HJPbJsM6dBTZ1w53sqn7GCscA/89hHNfWktGak23fYXaQurdAdmWD1M9x5jGG69oc1s2w3J3bpLBD+DtzHcHKsDDWwlqa0lmwRAnHjFMyLEi/8GjcE1BRed05y1onw/J4DIpGms7pDCw80FNbOgmWvD/FA2Kggy5es6ydru9ods2weI0E4GcmCt957zienTSmq2B5fVE36Tteqd/0BzBEJ40ZdZhk25QxyaB/BfByWbhyfnTJsBArgDwZ89x5SFfGs4tgTRiaAFky5v85j+dKrekiWBgdASAHK7Wmi2CNiSMAZGCl1oyIEXSBHU4oAXpY0BUtwap5fKX2Tf3mfIytHAtkWNAVrVNS/6g1IArv/5HFIlimV+Sc7KU+A0qOyeUtCkCwSswqKn8jf6PLA17ghCEGCBZocZiq+W7gxvCZ0qIACFZR1J5lXW1aGsp//4mh8Av0sBII1sxxfCYK33lvYFLd9RUtydDuDGQT3l+jGSRrJcPKj4VbfqPofF33Qo329/dErCxkEklvU8Lnli7DajwHSGEgWYnntmRadyJErwpV/D0pA630aeYK8fTOypi+yb2SVDoxKSVeL5snrSDdy99tkUH+JpnUjtHJiAcrPStf/qaH1W1CJsPwZQPbEqsT+RzJv1sUq6Z9jql7kRwykKiH5b25+PsQDwbqnlhkWDpZ60rBkpXEs2hpDKTPjM2q+VzJOKtKrLpkrV13CW8RLDIs0Hl+8oqS96Z7J43pKlg3niO57vZ9h6w1Dvh75n2VxP5VQ3aVnE4aM+o4weaUhWRZoLZ4v3ce03nXzah1jKOXjgOqMaBumftVcq3wnRPnMe2sLZ0Fq1XAafBrItUYUDeUhVWWg0krDa7Re4jpNLlgCWdOg7qd2vEuOyI3aID7ctB7drWWpozWnGRRCb32sjQG1jUaYLN0WQPP/av5OtlVnwwrcuw0uB9Sf6HsFjboQBXMFHYHI55PXF1bS0Y9J5nHUmaS+ohg52W2++xK2gxjr+W1aImuYD1RRo8NY43VkOZ7+cTGMP2rdNz3rdR6CZakxh5tDhpl4X3wbRmpAa0s+E+v2Wrf8nqTA/wugr/+y55SWXhBllV0djVVKgc92hkaGe+96C1Ykhl47L8kLwvJssiuPMVzk6N5RhtOtLjyzJwF/FDpe8myymOukV1pLXwVMNs0ninOdPeWZe1onL8tq84xGlEUKs9DjpQek60OIFiyNTl1FniVLMtpxloqvbbdB87SS2aaIp6pbs05c1bOaDXf1VZ1WIs4lg+UsquYWU0cxjNJJZZEsBzaHDSubV/Ech4wkw5euiic2b7gxGE8L1O9JZDyXkJvNge1tL59uKeBs/SHLAUvNL5YsvJ9Z/FswgY2BjXBcmhziCc4aA6+g8CuoZlSUDhyGNOk2WrSm58dNo3V0nspDeln5eWjViko2ZW3ZvsstS1E46p6T1nWWDPLkoc9DZCDY8VdwUV25e2iieRasPXt27fXf2Frq89qcuWoVo8r8lvFJm2M55fARQWaxC33A8XnN25/fHEmWL1iukqPRkr/s55sDmo7hk/YDTThtchRep84Eyu1fraKYDm0ORzKKqpVGsYB8DHQhNcQq13l7Hgn+NsZvFQ67FAtw4p4sjnE1fNc8w+QAbCLaNUjVsK5s7g2IaGNIZtgObQ57KW+cPWZmM4RrXrESjZkJs5iq2m61Wm6Lz20O0cPLa4u7zJMhFhm3AWuNy9ZrOKz+ersGUUbw+4mXzBU0/0nxXX0wMYhw6sXTzItGvFlloGRq4CNoZ6S8MnkmgVfXqIj7dIQ0erFTS6xkuNjvJ13NVX2seUpCeUBxszDkw8lS2n4JL6efG99uGifxXGmZ+GxFLyX8d5s+kUllIQebQ5RoLPtDolB7yDAcxPpYy6xEj45LAXVbAyDCNZilQu+TnPYV345elm0Ytn9jhLxO3NZ9bPdodk+79Pgb1ewCYo2hkFKwicPNE7gK2cr/K70m3JNmri6x8a/x5MBFpzJET0hY9yjUN05jPVByhecV+pRTsGSB+vJ5rBYgbL1s5YmUCxLPb2DOAuPLzHPM8c6tgC8vSv4EO9NbQzrCtabIVY/Z4IVB3Psa+zm/ENlx+adlCmHxifTvQjVNPcfLBmtx77VYi5nZZT7D3R6acVEdvLCAPGOgvU2Z58hs1DFSfN2CLESroLPkzSy2BgGLwmdp9DHWsfvrhH32N/aNyBUcdf5InepvRRPr3aSZDaGdUvCQQRLHvZp8Hkg/8GA2cDTMuaowlKxEaGaDilUzsfvQymotalRsmBtS5Y1RrQGnXgxQ/gQynZmR2vCdU6LQoeYXQWfNEFxE6lYweLBlyNaTxaQvYLEK4rTbXi8xea+oDh5HrPq47ZowZIB4M3mUKxoLYlXfCbv5WeOpvIsPJo9P5eSSSFWvz6j1DaGGgUrTog7x4OgSNF64TlF4fpdfm73FLIoSjFj+izlRTPEbhNi1Ytd7WdVvGDJYPD+8m4VovXK81sI2It9j1zvmjE+1VC9qKM2wRoHnzaHp1xkfkkXEKuuqNkYqhQsGRinwe828fdVLDx6tTgCeXih2pZWBderZXw3s4jjZbpmGMHXaQ7PEVfyO80beKBzictdkFLOh4LekihGsBxeWvESD5Mlx6ml8KxY7UtmxaLxI7sqJuMvpiR8MmA82xwGS8URqveLq9r2icZ31G0MNZeE3ycp4+Q7J/GaekrELCXgHWJV/lwsTrCcnubQpUQ8IhQqYhUzWPpVvzIt0R9XXEkog2gcsDk8m6KHR89WQyiSZFVej4ZZRTYbg4WS0OOlFV2ZSLZ1Sih6C9V2+zknq3qVy1IXxVHBQcPm8DwPZ7a3k+6r3H8H3cVqPzxewUV5/TJNKPiwxyJLwqUBdsUYWlkmntXwPt6A4yhmpt7Ot+/LoK+JVeN0f2WwYXNAuDYRqhPGT/cxlNvGsK5gvakgiGcMuE7EGMWz490Ll5TKh4ybXnOtaIrPsGQA8gLq+sRjXC5rPgVizTGyLWMkCtWYx782WU5jMF8SymCMAxCbQz/iFnUUrevc9/VlGhs7IlJ7jI+Nxsi7EnYGTQiWDMzTwGkOKbKu6/B47HBT619CROpPESmyqQSlYCmvgFkSLM+XVmiJ1+LM9OIzL2mgf0CkktOEAW4mNy9YMmhjjwKbg05JMAuPxxbPShCwJ0cyL86Vp9zToajTbk0JlgxkbA55mEkW9q/8nGuswtKfHIs4/SH/zPPN9IyHtjGsK1hvKgwyNoc8TJbj3IrLopS8l1Li36US8zlBW76s4ncRpb6XWEDauVQV1WVYMnGwOQBsRhE2hnUzrFGlwT57YTUHgNVUe7pvlYLFaQ4AG3FZq61lVHHQOc0BYH2aUPBpDGYFi0srAHpxVvM1clU23Z+CzQGgM8XZGJax2nT/acVgHAL4mCvVCxaXVgB0YmrhyKGRkYeBzQHgZcz0e00IFjYHgFe5tHLT0sjQQ8HmAPArTajYxmBWsLA5ADxL1TaGZaq3NSyDzQHgO8XbGJbxYGv4ZUVhnALYnAvmBAubA8ADU4s3J42MPixsDuAZs/1ck4KFzQGcY8bG4CXDimBzAI80wZCNwY1gYXMAp5iyMSxjztawDDYHcER1NoZlPNoafllxGMfgJbuy/hc0L1jYHMAJJm0MHjOsxcqDzQGs4qZf60KwsDmAcczaGLxmWBFsDmCRJhi2MbgVLGwOYBTTNoZlzNsalsHmAIao3sawDLaGZ1YkxjkwlikJaykNZwGbA9SPCxsDGdaPlQmbA9SK236sS8HC5gCV48bGgGD9AJsD1EgTHNkYEKwfWRY2B6gRVzaGZdzZGpbB5gAVYc7GsAy2hg4rFiEAxiolYS2l4Sxgc4DycWljQLBeXrmwOUCp0G9FsH7KspqAzQHKxa2NAcF6GWwOUCJNcGxjQLBezrJi2n1MJKAwjj3bGJZxb2tYBpsDFMRNK1YfPf2FsTWsTxwgrGgwNHEMHhAGBKtLafiRSMDA7FIKIlhdRWvG6gYDctCOwTlhQLDWEa0pogUDidWUMCBYiBYgVgiWC9GiEQ+aPPRNESsEK5Vo3bQ/4lvy9BUgNXFM7coYAwQrmWjNRbRwHUMqLkSsWAg7gnG0B3/9/X7S/rhqP2OiAT1owmO/akYofmalHiFYGwnXafvjsP1sEw3oQOxVxReZTwkFgjWUaEWxOkK4YJVQxRIQMyiCVZJw7Ylw7RARCI8N9ShUNwgVglWyeI1FvD4EXqT2xqz93IpINYQDwapRwCaSdcUs7A9KR1Ol3j/yc04TvQDBAgAoBXxYAIBgAQAgWACAYAEAIFgAAAgWACBYAAAIFgAAggUACBYAAIIFAIBgAQCCBQCAYAEAIFgAgGABACBYAAAIFgAgWAAAA/B/AQYADzNdSIm6e6IAAAAASUVORK5CYII=;imageBackground=none;" vertex="1" parent="vSlwN4f-bdKuWVTqhWNy-13">
          <mxGeometry x="95" y="53" width="31" height="31" as="geometry" />
        </mxCell>
        <mxCell id="vSlwN4f-bdKuWVTqhWNy-29" value="" style="group;shadow=1;fillColor=none;" vertex="1" connectable="0" parent="1">
          <mxGeometry x="92" y="183" width="216" height="191" as="geometry" />
        </mxCell>
        <mxCell id="vSlwN4f-bdKuWVTqhWNy-3" value="&lt;b&gt;&lt;font style=&quot;font-size: 13px;&quot;&gt;PaaS&lt;/font&gt;&lt;/b&gt;" style="text;html=1;align=center;verticalAlign=middle;whiteSpace=wrap;rounded=0;" vertex="1" parent="vSlwN4f-bdKuWVTqhWNy-29">
          <mxGeometry y="4" width="60" height="30" as="geometry" />
        </mxCell>
        <mxCell id="vSlwN4f-bdKuWVTqhWNy-31" value="" style="group" vertex="1" connectable="0" parent="vSlwN4f-bdKuWVTqhWNy-29">
          <mxGeometry width="216" height="191" as="geometry" />
        </mxCell>
        <mxCell id="vSlwN4f-bdKuWVTqhWNy-2" value="" style="rounded=1;whiteSpace=wrap;html=1;fillColor=#ffffff;fontColor=#333333;strokeColor=#0400f0;align=left;strokeWidth=2;shadow=1;" vertex="1" parent="vSlwN4f-bdKuWVTqhWNy-31">
          <mxGeometry width="216" height="191" as="geometry" />
        </mxCell>
        <mxCell id="vSlwN4f-bdKuWVTqhWNy-4" value="&lt;b&gt;Ops-Occurance-svc&lt;br&gt;App&lt;/b&gt;" style="rounded=1;whiteSpace=wrap;html=1;fillColor=#fff2cc;strokeColor=#d6b656;" vertex="1" parent="vSlwN4f-bdKuWVTqhWNy-31">
          <mxGeometry x="25.5" y="56" width="165" height="79" as="geometry" />
        </mxCell>
        <mxCell id="vSlwN4f-bdKuWVTqhWNy-6" value="" style="shape=image;verticalLabelPosition=bottom;verticalAlign=top;imageAspect=0;aspect=fixed;image=data:image/jpeg,iVBORw0KGgoAAAANSUhEUgAAASwAAAEsCAYAAAB5fY51AAAAGXRFWHRTb2Z0d2FyZQBBZG9iZSBJbWFnZVJlYWR5ccllPAAAFqtJREFUeNrsnfFRG8kShweV/z8yODmCwxFYBPDKOIKDAK6ACIAIgHoBICIw1AWAHIF1EXgvA14EfjvQsrEMaLWanp3p/r4qFXdVnHzunflNd89vZ7a+ffsWAABqYEQIAADBAgBAsAAAwQIAQLAAABAsAECwAAAQLAAABAsAECwAAAQLAADBAgAECwAAwQIAQLAAAMECAECwAAAQLABAsAAAECwAAAQLAOrnzapf2NraIkob8tff7yftj532s91+/pCfUD/37ecf+Tn/738+zwjJZqy6xWtr5S8gWH0Eatz+2Gs/H9rPhIi4IorWbfu5aQWsIRwIVqkitS0idSjZFMC8/VyKeN0TDgSrFKE6EqGi1IOXSscoXBcIF4I1pFidIlSwrnC1onVKKBCsnEI1aX9ctZ8x0YAeNO3ngCY9gpWj/DuREhBgUy7azxllIoKlIVY7klXRUIeUzCXbmhOK1YKFcbSbWMXdvzvEChSIY+pOxhisAMFaLVb77Y9PgcY66BHH1icZa4BgbSRWV0QCMnGFaCFYiBUgWkag6f68WE3CY88KYCjeeWzEs0u4vljFfsLXQM8KhiVaHd56szywS7g+NNihBOIYpCWBYL2aXcWt5QmRgELYw+6AYL3GOSEAxiSCVUN2dRp4NxDKYyxjEwJN94VYRaH6EuhdQZnExvs7DwcC0nTvxgliBQWzeOmeDMt7hoXnCipi1/qRNGRY3bIrAMZqBbgWLHkFYsI8gEqYeH9tx21JKI722GgfMw+gIprw2IA36YCnJHyZI8QKKmQcHJ946zLDwsYAlWPW5kCG9TzYGKBm3Noc3GVY2BjAEOZsDmRYz2dXAIzlCnElWNgYwBjubA5uSkJsDGCUJhiyOVAS/gAbA1hkHBzZHFxkWNgYwDhmbA5kWI9gYwDLuLE5mM+wsDGAI6q3OZBhYWMAP5gf66YFCxsDOMO8zcFsSYiNAZzShIptDp5LQmwM4JFxMGxzMJlhYWMA51Rrc/CaYWFjAM+YtTmYy7CwMQB8pzqbg8cMCxsDgNG5YCrDki3dK8Zpdm7az237mT3tm7TPY6f9ET9/BuwlQ3HQPpOplQzLjGBhYxiEmUyIpmOpfoJwZSc+m2psDp5KQmwMeTluJ8Fu152o2EuJv9/+4xmhy8o4GLI5mMiwsDHUVWZQumenGpuDlwwLG0PezGq6yRfIf39BKLNhxuZQfYaFjSEri7Iu1bP7ShmfleJtDh4yLGwM+Tgr/PvA+FypOsOiF5KVebs6v1N4hmRZeSna5mA2wxIbA9lVPq6VvveG0ObNsmTuVEnNJSE2hswZltL3fia0WRmHim0OVQqW2BgOGXsmBOue0GbnUOYQgpUrrQ3YGLJi5d47eKDadkp1giU2hn3GHMBG7MtcQrAyZFcA4HAuVSVYXCoBkJTqLq2oRrCwMTzQhMcTEmbyz7AeceMg2iiiYXUqcXSfZdVkc3hTUWC92hgamWA3y41v2enZC487pmPm3rPEmF1GgXru5V+ZrHuyGHqM4Vjm1mkN/7NVON0dn8YQXzS+6BijU80MtP3/2FJ6trHE13oXNGZQB11PKdCOYeGiXsRpDlac7t5sDI0MoM4nGrS/Gyfbu4CvacF0nfO6nsRw12EMq2m3FC9YDm0MMxGrtY2a8t98RKseTpU46JlJxvi/DXpG2VKpwuZQQ4blKUVfZAW9V3iZcJ5PQYixO9jkCyT+MdOaOotd8XOtaMFyZmM46JsVPMOF49LwMkUvJoqWPA9PBw0Wb3MoVrCc2RiSHvkhGYK37OB7lpryy9pYHm+asdWWZZVscyg5w/JgY3goPZTOJ7p1KFZzjZ0ueT5eRGscCj7NoUjBcnIaw0KsZhpfXtuNv4lotL7YmWgVe5pDqRmWdRvDQqy87URp84/mlzsSrWLbMcUJlhMbA2Klw2/af4Aj0SrS5lBihmW90X6AWKmxk+MPcSRaxc3FogTLgY0h2wUANZ51VItgPREt63634mwOxQiWAxvDRebbSj44FKztdhztZRSt02DfPlKUzaGkDMuyjeFG/Dw5xX8/+CTr7rKYSy2X+ONQkM2hCMEybmOIgzl3v8PzmfeTnFmWYP2F6WJsDqVkWFYn2MN7bTkvcJCew1HwzVUbh5z9rMW7h2ZL7VBIu2ZwwTJuY8i6I8hN2D9NsLvMohWf87HhmBZhcyghw7LaaI9N9my3Gsvhc4jVz6L1pY1LtmxTzi+zfJP14HN1UMEybGNoQqYt79hgbz93gfPuX+K8jU9OIT8IdvtZg9scBhMs4zaGjzn6VlLy3AVuEupSznzJsT0vz92yqXRQm8OQGZZVG8NZjr7VE7HaCdCFh3jl6GtJK8BqaTgOA27qDCJYhm0MjZgJc4mVV+tC8aJlvDQczOYwVIZl1cagXgogVhuTZQdRSsNjwzEcpJ2TXbAM2xhutM+gQqyqE61psHtZ6yA2hyEyLIuNdvXVFLFSEa1PGRrIlr1Z2edyVsEybGO41LyEErFSYyyZllpcZQNmajR+2W0O2QTLsI0hZlcXynG7QqzU2An6htuzYLcBn9XmkDPDsmxj0ByMVwHrgjZ77aQ7V8yyYvZ9aThLzWZzyCJYxm0MmtnVaZxM6EmeBVX5lAfLd0VmsznkyrCs2hjUXr+RHRhet8nLldbEkyzcapaVrd2jLliGbQxxAN4oxWzRt4L8E08z7pZvkc5ic8iRYVnNEi4Ve1dXwf4lsqUy0TrhwcGN3OpzXVWwjF8qcaEUsxgv+lYDTzzFnozliyvUbQ5qgmX8NIapRnZFKVhUaaiyayg7hjPjYq/Wr9bMsCxfKnFJzMyzp9iTuTYct3FQtDmoCJb1SyU0jo8xHrNaUcl25R1DLq0oKMOyfGvLNTFzw1ixJzM1XlKrtIOSC5bxSyVUBpqsRvvoQ5Fo9WGvjcdNxeYwqugBl8CNkpUBg6izLEvaCg1iP6BgGbcxRG7JrsiyUi6AxuOW3OYwSjjxLNsYNAcYYlVHlqXhjbt2ELukNoeUGZb1Lfm5UjnIzmAdJH9OTsrCcUhoc0giWE625JOvhpIuszNYT3mjsSDPPIh9qtilyrA8bMlrDKwP6EBVaJTvtw7ilqxdtLFgObAxRO5Tm0Wlruedwbr4kwyrv9insDmkyLDOHQRbY1AhVvUxTn3TjvRF507it7FWbCRY0oPxcHzvZ8pBIMvamJ1NbQ69BUtKmnMngaYcBM3M+LOj+J1vYnPYJMOKW5UudrgULkidMO+rLgvHJS+IhbMdNrA59BIseWBeXifRGEzvmfdVk3TBkTOy7h3Fr/cBiX0zrHNHwZ2XPuAhO+8rGWdFl4ZZBMvhEb7/Knwn9wySYXkXrF4HJPbJsM6dBTZ1w53sqn7GCscA/89hHNfWktGak23fYXaQurdAdmWD1M9x5jGG69oc1s2w3J3bpLBD+DtzHcHKsDDWwlqa0lmwRAnHjFMyLEi/8GjcE1BRed05y1onw/J4DIpGms7pDCw80FNbOgmWvD/FA2Kggy5es6ydru9ods2weI0E4GcmCt957zienTSmq2B5fVE36Tteqd/0BzBEJ40ZdZhk25QxyaB/BfByWbhyfnTJsBArgDwZ89x5SFfGs4tgTRiaAFky5v85j+dKrekiWBgdASAHK7Wmi2CNiSMAZGCl1oyIEXSBHU4oAXpY0BUtwap5fKX2Tf3mfIytHAtkWNAVrVNS/6g1IArv/5HFIlimV+Sc7KU+A0qOyeUtCkCwSswqKn8jf6PLA17ghCEGCBZocZiq+W7gxvCZ0qIACFZR1J5lXW1aGsp//4mh8Av0sBII1sxxfCYK33lvYFLd9RUtydDuDGQT3l+jGSRrJcPKj4VbfqPofF33Qo329/dErCxkEklvU8Lnli7DajwHSGEgWYnntmRadyJErwpV/D0pA630aeYK8fTOypi+yb2SVDoxKSVeL5snrSDdy99tkUH+JpnUjtHJiAcrPStf/qaH1W1CJsPwZQPbEqsT+RzJv1sUq6Z9jql7kRwykKiH5b25+PsQDwbqnlhkWDpZ60rBkpXEs2hpDKTPjM2q+VzJOKtKrLpkrV13CW8RLDIs0Hl+8oqS96Z7J43pKlg3niO57vZ9h6w1Dvh75n2VxP5VQ3aVnE4aM+o4weaUhWRZoLZ4v3ce03nXzah1jKOXjgOqMaBumftVcq3wnRPnMe2sLZ0Fq1XAafBrItUYUDeUhVWWg0krDa7Re4jpNLlgCWdOg7qd2vEuOyI3aID7ctB7drWWpozWnGRRCb32sjQG1jUaYLN0WQPP/av5OtlVnwwrcuw0uB9Sf6HsFjboQBXMFHYHI55PXF1bS0Y9J5nHUmaS+ohg52W2++xK2gxjr+W1aImuYD1RRo8NY43VkOZ7+cTGMP2rdNz3rdR6CZakxh5tDhpl4X3wbRmpAa0s+E+v2Wrf8nqTA/wugr/+y55SWXhBllV0djVVKgc92hkaGe+96C1Ykhl47L8kLwvJssiuPMVzk6N5RhtOtLjyzJwF/FDpe8myymOukV1pLXwVMNs0ninOdPeWZe1onL8tq84xGlEUKs9DjpQek60OIFiyNTl1FniVLMtpxloqvbbdB87SS2aaIp6pbs05c1bOaDXf1VZ1WIs4lg+UsquYWU0cxjNJJZZEsBzaHDSubV/Ech4wkw5euiic2b7gxGE8L1O9JZDyXkJvNge1tL59uKeBs/SHLAUvNL5YsvJ9Z/FswgY2BjXBcmhziCc4aA6+g8CuoZlSUDhyGNOk2WrSm58dNo3V0nspDeln5eWjViko2ZW3ZvsstS1E46p6T1nWWDPLkoc9DZCDY8VdwUV25e2iieRasPXt27fXf2Frq89qcuWoVo8r8lvFJm2M55fARQWaxC33A8XnN25/fHEmWL1iukqPRkr/s55sDmo7hk/YDTThtchRep84Eyu1fraKYDm0ORzKKqpVGsYB8DHQhNcQq13l7Hgn+NsZvFQ67FAtw4p4sjnE1fNc8w+QAbCLaNUjVsK5s7g2IaGNIZtgObQ57KW+cPWZmM4RrXrESjZkJs5iq2m61Wm6Lz20O0cPLa4u7zJMhFhm3AWuNy9ZrOKz+ersGUUbw+4mXzBU0/0nxXX0wMYhw6sXTzItGvFlloGRq4CNoZ6S8MnkmgVfXqIj7dIQ0erFTS6xkuNjvJ13NVX2seUpCeUBxszDkw8lS2n4JL6efG99uGifxXGmZ+GxFLyX8d5s+kUllIQebQ5RoLPtDolB7yDAcxPpYy6xEj45LAXVbAyDCNZilQu+TnPYV345elm0Ytn9jhLxO3NZ9bPdodk+79Pgb1ewCYo2hkFKwicPNE7gK2cr/K70m3JNmri6x8a/x5MBFpzJET0hY9yjUN05jPVByhecV+pRTsGSB+vJ5rBYgbL1s5YmUCxLPb2DOAuPLzHPM8c6tgC8vSv4EO9NbQzrCtabIVY/Z4IVB3Psa+zm/ENlx+adlCmHxifTvQjVNPcfLBmtx77VYi5nZZT7D3R6acVEdvLCAPGOgvU2Z58hs1DFSfN2CLESroLPkzSy2BgGLwmdp9DHWsfvrhH32N/aNyBUcdf5InepvRRPr3aSZDaGdUvCQQRLHvZp8Hkg/8GA2cDTMuaowlKxEaGaDilUzsfvQymotalRsmBtS5Y1RrQGnXgxQ/gQynZmR2vCdU6LQoeYXQWfNEFxE6lYweLBlyNaTxaQvYLEK4rTbXi8xea+oDh5HrPq47ZowZIB4M3mUKxoLYlXfCbv5WeOpvIsPJo9P5eSSSFWvz6j1DaGGgUrTog7x4OgSNF64TlF4fpdfm73FLIoSjFj+izlRTPEbhNi1Ytd7WdVvGDJYPD+8m4VovXK81sI2It9j1zvmjE+1VC9qKM2wRoHnzaHp1xkfkkXEKuuqNkYqhQsGRinwe828fdVLDx6tTgCeXih2pZWBderZXw3s4jjZbpmGMHXaQ7PEVfyO80beKBzictdkFLOh4LekihGsBxeWvESD5Mlx6ml8KxY7UtmxaLxI7sqJuMvpiR8MmA82xwGS8URqveLq9r2icZ31G0MNZeE3ycp4+Q7J/GaekrELCXgHWJV/lwsTrCcnubQpUQ8IhQqYhUzWPpVvzIt0R9XXEkog2gcsDk8m6KHR89WQyiSZFVej4ZZRTYbg4WS0OOlFV2ZSLZ1Sih6C9V2+zknq3qVy1IXxVHBQcPm8DwPZ7a3k+6r3H8H3cVqPzxewUV5/TJNKPiwxyJLwqUBdsUYWlkmntXwPt6A4yhmpt7Ot+/LoK+JVeN0f2WwYXNAuDYRqhPGT/cxlNvGsK5gvakgiGcMuE7EGMWz490Ll5TKh4ybXnOtaIrPsGQA8gLq+sRjXC5rPgVizTGyLWMkCtWYx782WU5jMF8SymCMAxCbQz/iFnUUrevc9/VlGhs7IlJ7jI+Nxsi7EnYGTQiWDMzTwGkOKbKu6/B47HBT619CROpPESmyqQSlYCmvgFkSLM+XVmiJ1+LM9OIzL2mgf0CkktOEAW4mNy9YMmhjjwKbg05JMAuPxxbPShCwJ0cyL86Vp9zToajTbk0JlgxkbA55mEkW9q/8nGuswtKfHIs4/SH/zPPN9IyHtjGsK1hvKgwyNoc8TJbj3IrLopS8l1Li36US8zlBW76s4ncRpb6XWEDauVQV1WVYMnGwOQBsRhE2hnUzrFGlwT57YTUHgNVUe7pvlYLFaQ4AG3FZq61lVHHQOc0BYH2aUPBpDGYFi0srAHpxVvM1clU23Z+CzQGgM8XZGJax2nT/acVgHAL4mCvVCxaXVgB0YmrhyKGRkYeBzQHgZcz0e00IFjYHgFe5tHLT0sjQQ8HmAPArTajYxmBWsLA5ADxL1TaGZaq3NSyDzQHgO8XbGJbxYGv4ZUVhnALYnAvmBAubA8ADU4s3J42MPixsDuAZs/1ck4KFzQGcY8bG4CXDimBzAI80wZCNwY1gYXMAp5iyMSxjztawDDYHcER1NoZlPNoafllxGMfgJbuy/hc0L1jYHMAJJm0MHjOsxcqDzQGs4qZf60KwsDmAcczaGLxmWBFsDmCRJhi2MbgVLGwOYBTTNoZlzNsalsHmAIao3sawDLaGZ1YkxjkwlikJaykNZwGbA9SPCxsDGdaPlQmbA9SK236sS8HC5gCV48bGgGD9AJsD1EgTHNkYEKwfWRY2B6gRVzaGZdzZGpbB5gAVYc7GsAy2hg4rFiEAxiolYS2l4Sxgc4DycWljQLBeXrmwOUCp0G9FsH7KspqAzQHKxa2NAcF6GWwOUCJNcGxjQLBezrJi2n1MJKAwjj3bGJZxb2tYBpsDFMRNK1YfPf2FsTWsTxwgrGgwNHEMHhAGBKtLafiRSMDA7FIKIlhdRWvG6gYDctCOwTlhQLDWEa0pogUDidWUMCBYiBYgVgiWC9GiEQ+aPPRNESsEK5Vo3bQ/4lvy9BUgNXFM7coYAwQrmWjNRbRwHUMqLkSsWAg7gnG0B3/9/X7S/rhqP2OiAT1owmO/akYofmalHiFYGwnXafvjsP1sEw3oQOxVxReZTwkFgjWUaEWxOkK4YJVQxRIQMyiCVZJw7Ylw7RARCI8N9ShUNwgVglWyeI1FvD4EXqT2xqz93IpINYQDwapRwCaSdcUs7A9KR1Ol3j/yc04TvQDBAgAoBXxYAIBgAQAgWACAYAEAIFgAAAgWACBYAAAIFgAAggUACBYAAIIFAIBgAQCCBQCAYAEAIFgAgGABACBYAAAIFgAgWAAAA/B/AQYADzNdSIm6e6IAAAAASUVORK5CYII=;imageBackground=none;" vertex="1" parent="vSlwN4f-bdKuWVTqhWNy-31">
          <mxGeometry x="29" y="99" width="36" height="36" as="geometry" />
        </mxCell>
        <mxCell id="vSlwN4f-bdKuWVTqhWNy-64" value="&lt;b&gt;&lt;font style=&quot;font-size: 13px;&quot;&gt;PaaS&lt;/font&gt;&lt;/b&gt;" style="text;html=1;align=center;verticalAlign=middle;whiteSpace=wrap;rounded=0;" vertex="1" parent="vSlwN4f-bdKuWVTqhWNy-31">
          <mxGeometry x="9" y="16" width="60" height="30" as="geometry" />
        </mxCell>
        <mxCell id="vSlwN4f-bdKuWVTqhWNy-32" value="" style="group" vertex="1" connectable="0" parent="1">
          <mxGeometry x="805" y="335" width="185" height="117" as="geometry" />
        </mxCell>
        <mxCell id="vSlwN4f-bdKuWVTqhWNy-33" value="&lt;b&gt;Config Repo&lt;/b&gt;" style="rounded=1;whiteSpace=wrap;html=1;fillColor=#fff2cc;strokeColor=#d6b656;" vertex="1" parent="vSlwN4f-bdKuWVTqhWNy-32">
          <mxGeometry width="131" height="86" as="geometry" />
        </mxCell>
        <mxCell id="vSlwN4f-bdKuWVTqhWNy-36" value="" style="shape=image;html=1;verticalAlign=top;verticalLabelPosition=bottom;labelBackgroundColor=#ffffff;imageAspect=0;aspect=fixed;image=https://cdn1.iconfinder.com/data/icons/picons-social/57/github_rounded-128.png" vertex="1" parent="vSlwN4f-bdKuWVTqhWNy-32">
          <mxGeometry x="98" y="54" width="24" height="24" as="geometry" />
        </mxCell>
        <mxCell id="vSlwN4f-bdKuWVTqhWNy-37" style="edgeStyle=orthogonalEdgeStyle;rounded=0;orthogonalLoop=1;jettySize=auto;html=1;exitX=0;exitY=0.5;exitDx=0;exitDy=0;entryX=1;entryY=0.5;entryDx=0;entryDy=0;flowAnimation=1;strokeWidth=2;" edge="1" parent="1" source="vSlwN4f-bdKuWVTqhWNy-33" target="vSlwN4f-bdKuWVTqhWNy-14">
          <mxGeometry relative="1" as="geometry" />
        </mxCell>
        <mxCell id="vSlwN4f-bdKuWVTqhWNy-43" value="" style="rounded=1;whiteSpace=wrap;html=1;fillColor=#ffffff;strokeColor=#36fa00;strokeWidth=2;" vertex="1" parent="1">
          <mxGeometry x="813" y="105" width="181" height="86" as="geometry" />
        </mxCell>
        <mxCell id="vSlwN4f-bdKuWVTqhWNy-41" value="" style="sketch=0;shadow=0;dashed=0;html=1;strokeColor=none;labelPosition=center;verticalLabelPosition=bottom;verticalAlign=top;outlineConnect=0;align=center;shape=mxgraph.office.databases.database_mini_3;fillColor=#2072B8;" vertex="1" parent="1">
          <mxGeometry x="840" y="113" width="63" height="65" as="geometry" />
        </mxCell>
        <mxCell id="vSlwN4f-bdKuWVTqhWNy-44" value="&lt;p&gt;&lt;b&gt;&lt;font face=&quot;Helvetica&quot; style=&quot;font-size: 13px;&quot;&gt;Jarvis DB&lt;/font&gt;&lt;/b&gt;&lt;/p&gt;" style="text;html=1;align=center;verticalAlign=middle;whiteSpace=wrap;rounded=0;" vertex="1" parent="1">
          <mxGeometry x="918" y="131" width="60" height="30" as="geometry" />
        </mxCell>
        <mxCell id="vSlwN4f-bdKuWVTqhWNy-48" value="" style="group;fillColor=none;" vertex="1" connectable="0" parent="1">
          <mxGeometry x="397" y="172" width="202" height="81" as="geometry" />
        </mxCell>
        <mxCell id="vSlwN4f-bdKuWVTqhWNy-25" value="" style="rounded=1;whiteSpace=wrap;html=1;fillColor=none;fontColor=#000000;strokeColor=#f0a30a;align=left;strokeWidth=2;gradientColor=none;shadow=1;" vertex="1" parent="vSlwN4f-bdKuWVTqhWNy-48">
          <mxGeometry width="202" height="81" as="geometry" />
        </mxCell>
        <mxCell id="vSlwN4f-bdKuWVTqhWNy-24" value="" style="outlineConnect=0;dashed=0;verticalLabelPosition=bottom;verticalAlign=top;align=center;html=1;shape=mxgraph.aws3.echo;fillColor=#205B99;gradientColor=none;rotation=-90;" vertex="1" parent="vSlwN4f-bdKuWVTqhWNy-48">
          <mxGeometry x="77" y="-51" width="40.5" height="163" as="geometry" />
        </mxCell>
        <mxCell id="vSlwN4f-bdKuWVTqhWNy-26" value="&lt;p&gt;&lt;b&gt;&lt;font face=&quot;Helvetica&quot; style=&quot;font-size: 13px;&quot;&gt;MaaS&lt;/font&gt;&lt;/b&gt;&lt;/p&gt;" style="text;html=1;align=center;verticalAlign=middle;whiteSpace=wrap;rounded=0;" vertex="1" parent="vSlwN4f-bdKuWVTqhWNy-48">
          <mxGeometry x="142" y="49" width="60" height="30" as="geometry" />
        </mxCell>
        <mxCell id="vSlwN4f-bdKuWVTqhWNy-38" value="&lt;p&gt;&lt;b&gt;&lt;font color=&quot;#ffffff&quot; face=&quot;Helvetica&quot; style=&quot;font-size: 13px;&quot;&gt;Topic&lt;/font&gt;&lt;/b&gt;&lt;/p&gt;" style="text;html=1;align=center;verticalAlign=middle;whiteSpace=wrap;rounded=0;" vertex="1" parent="vSlwN4f-bdKuWVTqhWNy-48">
          <mxGeometry x="77" y="8.5" width="60" height="44" as="geometry" />
        </mxCell>
        <mxCell id="vSlwN4f-bdKuWVTqhWNy-54" style="edgeStyle=orthogonalEdgeStyle;rounded=0;orthogonalLoop=1;jettySize=auto;html=1;entryX=0;entryY=1;entryDx=0;entryDy=0;flowAnimation=1;fillColor=#fa6800;strokeColor=#C73500;strokeWidth=2;" edge="1" parent="1" source="vSlwN4f-bdKuWVTqhWNy-9" target="vSlwN4f-bdKuWVTqhWNy-38">
          <mxGeometry relative="1" as="geometry" />
        </mxCell>
        <mxCell id="vSlwN4f-bdKuWVTqhWNy-55" style="edgeStyle=orthogonalEdgeStyle;rounded=0;orthogonalLoop=1;jettySize=auto;html=1;exitX=0.5;exitY=0;exitDx=0;exitDy=0;exitPerimeter=0;entryX=1;entryY=0.25;entryDx=0;entryDy=0;flowAnimation=1;fillColor=#0050ef;strokeColor=#001DBC;strokeWidth=2;" edge="1" parent="1" source="vSlwN4f-bdKuWVTqhWNy-24" target="vSlwN4f-bdKuWVTqhWNy-4">
          <mxGeometry relative="1" as="geometry" />
        </mxCell>
        <mxCell id="vSlwN4f-bdKuWVTqhWNy-58" style="edgeStyle=orthogonalEdgeStyle;rounded=0;orthogonalLoop=1;jettySize=auto;html=1;flowAnimation=1;fillColor=#60a917;strokeColor=#62ff00;strokeWidth=2;" edge="1" parent="1" source="vSlwN4f-bdKuWVTqhWNy-4" target="vSlwN4f-bdKuWVTqhWNy-41">
          <mxGeometry relative="1" as="geometry">
            <Array as="points">
              <mxPoint x="200" y="140" />
            </Array>
          </mxGeometry>
        </mxCell>
        <mxCell id="vSlwN4f-bdKuWVTqhWNy-59" style="edgeStyle=orthogonalEdgeStyle;rounded=0;orthogonalLoop=1;jettySize=auto;html=1;exitX=0.5;exitY=0;exitDx=0;exitDy=0;entryX=1;entryY=0.5;entryDx=0;entryDy=0;flowAnimation=1;jumpStyle=arc;jumpSize=15;fillColor=#0050ef;strokeColor=#001DBC;strokeWidth=2;" edge="1" parent="1" source="vSlwN4f-bdKuWVTqhWNy-14" target="vSlwN4f-bdKuWVTqhWNy-4">
          <mxGeometry relative="1" as="geometry" />
        </mxCell>
      </root>
    </mxGraphModel>
  </diagram>
</mxfile>
